<?xml version="1.0" encoding="UTF-8" standalone="no"?>
<!DOCTYPE svg PUBLIC "-//W3C//DTD SVG 1.1//EN"
 "http://www.w3.org/Graphics/SVG/1.1/DTD/svg11.dtd">
<!-- Generated by graphviz version 2.40.1 (20161225.0304)
 -->
<!-- Title: dependencies Pages: 1 -->
<svg width="1535pt" height="284pt"
 viewBox="0.00 0.00 1535.00 284.00" xmlns="http://www.w3.org/2000/svg" xmlns:xlink="http://www.w3.org/1999/xlink">
<g id="graph0" class="graph" transform="scale(1 1) rotate(0) translate(4 280)">
<title>dependencies</title>
<polygon fill="#ffffff" stroke="transparent" points="-4,4 -4,-280 1531,-280 1531,4 -4,4"/>
<text text-anchor="start" x="742.5091" y="-42.4" font-family="sans-serif" font-weight="bold" font-size="14.00" fill="#000000">Legend</text>
<polygon fill="#ffffb3" stroke="transparent" points="529.5,-10 529.5,-30 549.5,-30 549.5,-10 529.5,-10"/>
<text text-anchor="start" x="553.129" y="-15.4" font-family="sans-serif" font-size="14.00" fill="#000000"> &#160;Declarations</text>
<polygon fill="#8dd3c7" stroke="transparent" points="642.5,-10 642.5,-30 662.5,-30 662.5,-10 642.5,-10"/>
<text text-anchor="start" x="666.2251" y="-15.4" font-family="sans-serif" font-size="14.00" fill="#000000"> &#160;Module</text>
<polygon fill="#80b1d3" stroke="transparent" points="728.5,-10 728.5,-30 748.5,-30 748.5,-10 728.5,-10"/>
<text text-anchor="start" x="752.2812" y="-15.4" font-family="sans-serif" font-size="14.00" fill="#000000"> &#160;Bootstrap</text>
<polygon fill="#fdb462" stroke="transparent" points="825.5,-10 825.5,-30 845.5,-30 845.5,-10 825.5,-10"/>
<text text-anchor="start" x="849.1732" y="-15.4" font-family="sans-serif" font-size="14.00" fill="#000000"> &#160;Providers</text>
<polygon fill="#fb8072" stroke="transparent" points="921.5,-10 921.5,-30 941.5,-30 941.5,-10 921.5,-10"/>
<text text-anchor="start" x="945.2258" y="-15.4" font-family="sans-serif" font-size="14.00" fill="#000000"> &#160;Exports</text>
<g id="clust1" class="cluster">
<title>cluster_AppModule</title>
<polygon fill="none" stroke="#000000" stroke-dasharray="1,5" points="8,-70 8,-268 1519,-268 1519,-70 8,-70"/>
</g>
<g id="clust2" class="cluster">
<title>cluster_AppModule_declarations</title>
<polygon fill="none" stroke="#000000" points="168,-78 168,-130 1511,-130 1511,-78 168,-78"/>
</g>
<g id="clust12" class="cluster">
<title>cluster_AppModule_imports</title>
<polygon fill="none" stroke="#000000" points="16,-78 16,-130 160,-130 160,-78 16,-78"/>
</g>
<g id="clust14" class="cluster">
<title>cluster_AppModule_bootstrap</title>
<polygon fill="none" stroke="#000000" points="706,-208 706,-260 830,-260 830,-208 706,-208"/>
</g>
<!-- AppComponent -->
<g id="node1" class="node">
<title>AppComponent</title>
<polygon fill="#ffffb3" stroke="#000000" points="1502.9399,-122 1397.0601,-122 1397.0601,-86 1502.9399,-86 1502.9399,-122"/>
<text text-anchor="middle" x="1450" y="-99.8" font-family="Times,serif" font-size="14.00" fill="#000000">AppComponent</text>
</g>
<!-- AppModule -->
<g id="node10" class="node">
<title>AppModule</title>
<polygon fill="#8dd3c7" stroke="#000000" points="809.6571,-187 806.6571,-191 785.6571,-191 782.6571,-187 726.3429,-187 726.3429,-151 809.6571,-151 809.6571,-187"/>
<text text-anchor="middle" x="768" y="-164.8" font-family="Times,serif" font-size="14.00" fill="#000000">AppModule</text>
</g>
<!-- AppComponent&#45;&gt;AppModule -->
<g id="edge1" class="edge">
<title>AppComponent&#45;&gt;AppModule</title>
<path fill="none" stroke="#000000" d="M1450,-122.0109C1450,-144.4852 1450,-180 1450,-180 1450,-180 819.8912,-180 819.8912,-180"/>
<polygon fill="#000000" stroke="#000000" points="819.8912,-176.5001 809.8912,-180 819.8911,-183.5001 819.8912,-176.5001"/>
</g>
<!-- DashboardComponent -->
<g id="node2" class="node">
<title>DashboardComponent</title>
<polygon fill="#ffffb3" stroke="#000000" points="1378.9734,-122 1237.0266,-122 1237.0266,-86 1378.9734,-86 1378.9734,-122"/>
<text text-anchor="middle" x="1308" y="-99.8" font-family="Times,serif" font-size="14.00" fill="#000000">DashboardComponent</text>
</g>
<!-- DashboardComponent&#45;&gt;AppModule -->
<g id="edge2" class="edge">
<title>DashboardComponent&#45;&gt;AppModule</title>
<path fill="none" stroke="#000000" d="M1308,-122.1289C1308,-142.5724 1308,-173 1308,-173 1308,-173 819.9236,-173 819.9236,-173"/>
<polygon fill="#000000" stroke="#000000" points="819.9236,-169.5001 809.9236,-173 819.9235,-176.5001 819.9236,-169.5001"/>
</g>
<!-- LoginComponent -->
<g id="node3" class="node">
<title>LoginComponent</title>
<polygon fill="#ffffb3" stroke="#000000" points="1219.2758,-122 1104.7242,-122 1104.7242,-86 1219.2758,-86 1219.2758,-122"/>
<text text-anchor="middle" x="1162" y="-99.8" font-family="Times,serif" font-size="14.00" fill="#000000">LoginComponent</text>
</g>
<!-- LoginComponent&#45;&gt;AppModule -->
<g id="edge3" class="edge">
<title>LoginComponent&#45;&gt;AppModule</title>
<path fill="none" stroke="#000000" d="M1162,-122.2667C1162,-140.5552 1162,-166 1162,-166 1162,-166 819.7919,-166 819.7919,-166"/>
<polygon fill="#000000" stroke="#000000" points="819.7919,-162.5001 809.7919,-166 819.7919,-169.5001 819.7919,-162.5001"/>
</g>
<!-- NavigationBarComponent -->
<g id="node4" class="node">
<title>NavigationBarComponent</title>
<polygon fill="#ffffb3" stroke="#000000" points="1086.752,-122 923.248,-122 923.248,-86 1086.752,-86 1086.752,-122"/>
<text text-anchor="middle" x="1005" y="-99.8" font-family="Times,serif" font-size="14.00" fill="#000000">NavigationBarComponent</text>
</g>
<!-- NavigationBarComponent&#45;&gt;AppModule -->
<g id="edge4" class="edge">
<title>NavigationBarComponent&#45;&gt;AppModule</title>
<path fill="none" stroke="#000000" d="M1005,-122.0091C1005,-138.0494 1005,-159 1005,-159 1005,-159 819.8253,-159 819.8253,-159"/>
<polygon fill="#000000" stroke="#000000" points="819.8253,-155.5001 809.8253,-159 819.8253,-162.5001 819.8253,-155.5001"/>
</g>
<!-- RecipeComponent -->
<g id="node5" class="node">
<title>RecipeComponent</title>
<polygon fill="#ffffb3" stroke="#000000" points="905.2036,-122 784.7964,-122 784.7964,-86 905.2036,-86 905.2036,-122"/>
<text text-anchor="middle" x="845" y="-99.8" font-family="Times,serif" font-size="14.00" fill="#000000">RecipeComponent</text>
</g>
<!-- RecipeComponent&#45;&gt;AppModule -->
<g id="edge5" class="edge">
<title>RecipeComponent&#45;&gt;AppModule</title>
<path fill="none" stroke="#000000" d="M797.3633,-122.1061C797.3633,-122.1061 797.3633,-140.991 797.3633,-140.991"/>
<polygon fill="#000000" stroke="#000000" points="793.8633,-140.9909 797.3633,-150.991 800.8633,-140.991 793.8633,-140.9909"/>
</g>
<!-- RecipeFormComponent -->
<g id="node6" class="node">
<title>RecipeFormComponent</title>
<polygon fill="#ffffb3" stroke="#000000" points="767.0379,-122 616.9621,-122 616.9621,-86 767.0379,-86 767.0379,-122"/>
<text text-anchor="middle" x="692" y="-99.8" font-family="Times,serif" font-size="14.00" fill="#000000">RecipeFormComponent</text>
</g>
<!-- RecipeFormComponent&#45;&gt;AppModule -->
<g id="edge6" class="edge">
<title>RecipeFormComponent&#45;&gt;AppModule</title>
<path fill="none" stroke="#000000" d="M746.7202,-122.1061C746.7202,-122.1061 746.7202,-140.991 746.7202,-140.991"/>
<polygon fill="#000000" stroke="#000000" points="743.2203,-140.9909 746.7202,-150.991 750.2203,-140.991 743.2203,-140.9909"/>
</g>
<!-- RecipeViewComponent -->
<g id="node7" class="node">
<title>RecipeViewComponent</title>
<polygon fill="#ffffb3" stroke="#000000" points="598.0226,-122 447.9774,-122 447.9774,-86 598.0226,-86 598.0226,-122"/>
<text text-anchor="middle" x="523" y="-99.8" font-family="Times,serif" font-size="14.00" fill="#000000">RecipeViewComponent</text>
</g>
<!-- RecipeViewComponent&#45;&gt;AppModule -->
<g id="edge7" class="edge">
<title>RecipeViewComponent&#45;&gt;AppModule</title>
<path fill="none" stroke="#000000" d="M523,-122.0091C523,-138.0494 523,-159 523,-159 523,-159 716.1614,-159 716.1614,-159"/>
<polygon fill="#000000" stroke="#000000" points="716.1614,-162.5001 726.1614,-159 716.1613,-155.5001 716.1614,-162.5001"/>
</g>
<!-- RegisterComponent -->
<g id="node8" class="node">
<title>RegisterComponent</title>
<polygon fill="#ffffb3" stroke="#000000" points="429.9846,-122 302.0154,-122 302.0154,-86 429.9846,-86 429.9846,-122"/>
<text text-anchor="middle" x="366" y="-99.8" font-family="Times,serif" font-size="14.00" fill="#000000">RegisterComponent</text>
</g>
<!-- RegisterComponent&#45;&gt;AppModule -->
<g id="edge8" class="edge">
<title>RegisterComponent&#45;&gt;AppModule</title>
<path fill="none" stroke="#000000" d="M366,-122.2667C366,-140.5552 366,-166 366,-166 366,-166 716.1166,-166 716.1166,-166"/>
<polygon fill="#000000" stroke="#000000" points="716.1166,-169.5001 726.1166,-166 716.1166,-162.5001 716.1166,-169.5001"/>
</g>
<!-- UserComponent -->
<g id="node9" class="node">
<title>UserComponent</title>
<polygon fill="#ffffb3" stroke="#000000" points="283.7591,-122 176.2409,-122 176.2409,-86 283.7591,-86 283.7591,-122"/>
<text text-anchor="middle" x="230" y="-99.8" font-family="Times,serif" font-size="14.00" fill="#000000">UserComponent</text>
</g>
<!-- UserComponent&#45;&gt;AppModule -->
<g id="edge9" class="edge">
<title>UserComponent&#45;&gt;AppModule</title>
<path fill="none" stroke="#000000" d="M230,-122.1289C230,-142.5724 230,-173 230,-173 230,-173 716.2317,-173 716.2317,-173"/>
<polygon fill="#000000" stroke="#000000" points="716.2318,-176.5001 726.2317,-173 716.2317,-169.5001 716.2318,-176.5001"/>
</g>
<!-- AppComponent  -->
<g id="node12" class="node">
<title>AppComponent </title>
<polygon fill="#80b1d3" stroke="#000000" points="822.439,-252 713.561,-252 713.561,-216 822.439,-216 822.439,-252"/>
<text text-anchor="middle" x="768" y="-229.8" font-family="Times,serif" font-size="14.00" fill="#000000">AppComponent </text>
</g>
<!-- AppModule&#45;&gt;AppComponent  -->
<g id="edge11" class="edge">
<title>AppModule&#45;&gt;AppComponent </title>
<path fill="none" stroke="#000000" stroke-dasharray="1,5" d="M768,-187.1061C768,-187.1061 768,-205.991 768,-205.991"/>
<polygon fill="#000000" stroke="#000000" points="764.5001,-205.9909 768,-215.991 771.5001,-205.991 764.5001,-205.9909"/>
</g>
<!-- AppRoutingModule -->
<g id="node11" class="node">
<title>AppRoutingModule</title>
<polygon fill="#8dd3c7" stroke="#000000" points="152.2744,-122 149.2744,-126 128.2744,-126 125.2744,-122 23.7256,-122 23.7256,-86 152.2744,-86 152.2744,-122"/>
<text text-anchor="middle" x="88" y="-99.8" font-family="Times,serif" font-size="14.00" fill="#000000">AppRoutingModule</text>
</g>
<!-- AppRoutingModule&#45;&gt;AppModule -->
<g id="edge10" class="edge">
<title>AppRoutingModule&#45;&gt;AppModule</title>
<path fill="none" stroke="#000000" d="M88,-122.0109C88,-144.4852 88,-180 88,-180 88,-180 716.2317,-180 716.2317,-180"/>
<polygon fill="#000000" stroke="#000000" points="716.2317,-183.5001 726.2317,-180 716.2317,-176.5001 716.2317,-183.5001"/>
</g>
</g>
</svg>
