<svg xmlns="http://www.w3.org/2000/svg" xmlns:xlink="http://www.w3.org/1999/xlink" width="1535pt" height="284pt" viewBox="0 0 1535 284"><g id="graph0" class="graph" transform="scale(1 1) rotate(0) translate(4 280)"><title>dependencies</title><polygon fill="#fff" stroke="transparent" points="-4 4 -4 -280 1531 -280 1531 4 -4 4"/><text x="742.509" y="-42.4" fill="#000" font-family="sans-serif" font-size="14" font-weight="bold" text-anchor="start">Legend</text><polygon fill="#ffffb3" stroke="transparent" points="529.5 -10 529.5 -30 549.5 -30 549.5 -10 529.5 -10"/><text x="553.129" y="-15.4" fill="#000" font-family="sans-serif" font-size="14" text-anchor="start">Declarations</text><polygon fill="#8dd3c7" stroke="transparent" points="642.5 -10 642.5 -30 662.5 -30 662.5 -10 642.5 -10"/><text x="666.225" y="-15.4" fill="#000" font-family="sans-serif" font-size="14" text-anchor="start">Module</text><polygon fill="#80b1d3" stroke="transparent" points="728.5 -10 728.5 -30 748.5 -30 748.5 -10 728.5 -10"/><text x="752.281" y="-15.4" fill="#000" font-family="sans-serif" font-size="14" text-anchor="start">Bootstrap</text><polygon fill="#fdb462" stroke="transparent" points="825.5 -10 825.5 -30 845.5 -30 845.5 -10 825.5 -10"/><text x="849.173" y="-15.4" fill="#000" font-family="sans-serif" font-size="14" text-anchor="start">Providers</text><polygon fill="#fb8072" stroke="transparent" points="921.5 -10 921.5 -30 941.5 -30 941.5 -10 921.5 -10"/><text x="945.226" y="-15.4" fill="#000" font-family="sans-serif" font-size="14" text-anchor="start">Exports</text><g id="clust1" class="cluster"><title>cluster_AppModule</title><polygon fill="none" stroke="#000" stroke-dasharray="1 5" points="8 -70 8 -268 1519 -268 1519 -70 8 -70"/></g><g id="clust2" class="cluster"><title>cluster_AppModule_declarations</title><polygon fill="none" stroke="#000" points="168 -78 168 -130 1511 -130 1511 -78 168 -78"/></g><g id="clust12" class="cluster"><title>cluster_AppModule_imports</title><polygon fill="none" stroke="#000" points="16 -78 16 -130 160 -130 160 -78 16 -78"/></g><g id="clust14" class="cluster"><title>cluster_AppModule_bootstrap</title><polygon fill="none" stroke="#000" points="706 -208 706 -260 830 -260 830 -208 706 -208"/></g><g id="node1" class="node"><title>AppComponent</title><polygon fill="#ffffb3" stroke="#000" points="1502.94 -122 1397.06 -122 1397.06 -86 1502.94 -86 1502.94 -122"/><text x="1450" y="-99.8" fill="#000" font-family="Times,serif" font-size="14" text-anchor="middle">AppComponent</text></g><g id="node10" class="node"><title>AppModule</title><polygon fill="#8dd3c7" stroke="#000" points="809.657 -187 806.657 -191 785.657 -191 782.657 -187 726.343 -187 726.343 -151 809.657 -151 809.657 -187"/><text x="768" y="-164.8" fill="#000" font-family="Times,serif" font-size="14" text-anchor="middle">AppModule</text></g><g id="edge1" class="edge"><title>AppComponent-&gt;AppModule</title><path fill="none" stroke="#000" d="M1450,-122.0109C1450,-144.4852 1450,-180 1450,-180 1450,-180 819.8912,-180 819.8912,-180"/><polygon fill="#000" stroke="#000" points="819.891 -176.5 809.891 -180 819.891 -183.5 819.891 -176.5"/></g><g id="node2" class="node"><title>DashboardComponent</title><polygon fill="#ffffb3" stroke="#000" points="1378.973 -122 1237.027 -122 1237.027 -86 1378.973 -86 1378.973 -122"/><text x="1308" y="-99.8" fill="#000" font-family="Times,serif" font-size="14" text-anchor="middle">DashboardComponent</text></g><g id="edge2" class="edge"><title>DashboardComponent-&gt;AppModule</title><path fill="none" stroke="#000" d="M1308,-122.1289C1308,-142.5724 1308,-173 1308,-173 1308,-173 819.9236,-173 819.9236,-173"/><polygon fill="#000" stroke="#000" points="819.924 -169.5 809.924 -173 819.923 -176.5 819.924 -169.5"/></g><g id="node3" class="node"><title>LoginComponent</title><polygon fill="#ffffb3" stroke="#000" points="1219.276 -122 1104.724 -122 1104.724 -86 1219.276 -86 1219.276 -122"/><text x="1162" y="-99.8" fill="#000" font-family="Times,serif" font-size="14" text-anchor="middle">LoginComponent</text></g><g id="edge3" class="edge"><title>LoginComponent-&gt;AppModule</title><path fill="none" stroke="#000" d="M1162,-122.2667C1162,-140.5552 1162,-166 1162,-166 1162,-166 819.7919,-166 819.7919,-166"/><polygon fill="#000" stroke="#000" points="819.792 -162.5 809.792 -166 819.792 -169.5 819.792 -162.5"/></g><g id="node4" class="node"><title>NavigationBarComponent</title><polygon fill="#ffffb3" stroke="#000" points="1086.752 -122 923.248 -122 923.248 -86 1086.752 -86 1086.752 -122"/><text x="1005" y="-99.8" fill="#000" font-family="Times,serif" font-size="14" text-anchor="middle">NavigationBarComponent</text></g><g id="edge4" class="edge"><title>NavigationBarComponent-&gt;AppModule</title><path fill="none" stroke="#000" d="M1005,-122.0091C1005,-138.0494 1005,-159 1005,-159 1005,-159 819.8253,-159 819.8253,-159"/><polygon fill="#000" stroke="#000" points="819.825 -155.5 809.825 -159 819.825 -162.5 819.825 -155.5"/></g><g id="node5" class="node"><title>RecipeComponent</title><polygon fill="#ffffb3" stroke="#000" points="905.204 -122 784.796 -122 784.796 -86 905.204 -86 905.204 -122"/><text x="845" y="-99.8" fill="#000" font-family="Times,serif" font-size="14" text-anchor="middle">RecipeComponent</text></g><g id="edge5" class="edge"><title>RecipeComponent-&gt;AppModule</title><path fill="none" stroke="#000" d="M797.3633,-122.1061C797.3633,-122.1061 797.3633,-140.991 797.3633,-140.991"/><polygon fill="#000" stroke="#000" points="793.863 -140.991 797.363 -150.991 800.863 -140.991 793.863 -140.991"/></g><g id="node6" class="node"><title>RecipeFormComponent</title><polygon fill="#ffffb3" stroke="#000" points="767.038 -122 616.962 -122 616.962 -86 767.038 -86 767.038 -122"/><text x="692" y="-99.8" fill="#000" font-family="Times,serif" font-size="14" text-anchor="middle">RecipeFormComponent</text></g><g id="edge6" class="edge"><title>RecipeFormComponent-&gt;AppModule</title><path fill="none" stroke="#000" d="M746.7202,-122.1061C746.7202,-122.1061 746.7202,-140.991 746.7202,-140.991"/><polygon fill="#000" stroke="#000" points="743.22 -140.991 746.72 -150.991 750.22 -140.991 743.22 -140.991"/></g><g id="node7" class="node"><title>RecipeViewComponent</title><polygon fill="#ffffb3" stroke="#000" points="598.023 -122 447.977 -122 447.977 -86 598.023 -86 598.023 -122"/><text x="523" y="-99.8" fill="#000" font-family="Times,serif" font-size="14" text-anchor="middle">RecipeViewComponent</text></g><g id="edge7" class="edge"><title>RecipeViewComponent-&gt;AppModule</title><path fill="none" stroke="#000" d="M523,-122.0091C523,-138.0494 523,-159 523,-159 523,-159 716.1614,-159 716.1614,-159"/><polygon fill="#000" stroke="#000" points="716.161 -162.5 726.161 -159 716.161 -155.5 716.161 -162.5"/></g><g id="node8" class="node"><title>RegisterComponent</title><polygon fill="#ffffb3" stroke="#000" points="429.985 -122 302.015 -122 302.015 -86 429.985 -86 429.985 -122"/><text x="366" y="-99.8" fill="#000" font-family="Times,serif" font-size="14" text-anchor="middle">RegisterComponent</text></g><g id="edge8" class="edge"><title>RegisterComponent-&gt;AppModule</title><path fill="none" stroke="#000" d="M366,-122.2667C366,-140.5552 366,-166 366,-166 366,-166 716.1166,-166 716.1166,-166"/><polygon fill="#000" stroke="#000" points="716.117 -169.5 726.117 -166 716.117 -162.5 716.117 -169.5"/></g><g id="node9" class="node"><title>UserComponent</title><polygon fill="#ffffb3" stroke="#000" points="283.759 -122 176.241 -122 176.241 -86 283.759 -86 283.759 -122"/><text x="230" y="-99.8" fill="#000" font-family="Times,serif" font-size="14" text-anchor="middle">UserComponent</text></g><g id="edge9" class="edge"><title>UserComponent-&gt;AppModule</title><path fill="none" stroke="#000" d="M230,-122.1289C230,-142.5724 230,-173 230,-173 230,-173 716.2317,-173 716.2317,-173"/><polygon fill="#000" stroke="#000" points="716.232 -176.5 726.232 -173 716.232 -169.5 716.232 -176.5"/></g><g id="node12" class="node"><title>AppComponent</title><polygon fill="#80b1d3" stroke="#000" points="822.439 -252 713.561 -252 713.561 -216 822.439 -216 822.439 -252"/><text x="768" y="-229.8" fill="#000" font-family="Times,serif" font-size="14" text-anchor="middle">AppComponent</text></g><g id="edge11" class="edge"><title>AppModule-&gt;AppComponent</title><path fill="none" stroke="#000" stroke-dasharray="1 5" d="M768,-187.1061C768,-187.1061 768,-205.991 768,-205.991"/><polygon fill="#000" stroke="#000" points="764.5 -205.991 768 -215.991 771.5 -205.991 764.5 -205.991"/></g><g id="node11" class="node"><title>AppRoutingModule</title><polygon fill="#8dd3c7" stroke="#000" points="152.274 -122 149.274 -126 128.274 -126 125.274 -122 23.726 -122 23.726 -86 152.274 -86 152.274 -122"/><text x="88" y="-99.8" fill="#000" font-family="Times,serif" font-size="14" text-anchor="middle">AppRoutingModule</text></g><g id="edge10" class="edge"><title>AppRoutingModule-&gt;AppModule</title><path fill="none" stroke="#000" d="M88,-122.0109C88,-144.4852 88,-180 88,-180 88,-180 716.2317,-180 716.2317,-180"/><polygon fill="#000" stroke="#000" points="716.232 -183.5 726.232 -180 716.232 -176.5 716.232 -183.5"/></g></g></svg>